<svg width="16" height="16" viewBox="0 0 16 16" fill="none" xmlns="http://www.w3.org/2000/svg">
<path d="M10.9874 1.47961H12.791C13.1733 1.47286 13.5448 1.60663 13.8349 1.85554C14.1251 2.10445 14.3136 2.45116 14.3649 2.82987V7.55576C14.3136 7.93446 14.1251 8.28118 13.8349 8.53009C13.5448 8.779 13.1733 8.91277 12.791 8.90601H10.9874M6.25894 10.2563V12.9568C6.25894 13.4939 6.47244 14.0091 6.85248 14.3889C7.23252 14.7688 7.74797 14.9822 8.28543 14.9822L10.9874 8.90601V1.47961H3.36781C3.042 1.47593 2.72584 1.59006 2.47757 1.80097C2.22931 2.01188 2.06567 2.30536 2.01682 2.62733L1.08463 8.70347C1.05525 8.89699 1.0683 9.09459 1.12291 9.28256C1.17751 9.47054 1.27235 9.6444 1.40086 9.79211C1.52937 9.93981 1.68847 10.0578 1.86715 10.138C2.04582 10.2181 2.2398 10.2585 2.43563 10.2563H6.25894Z" stroke="black" stroke-width="1.35139" stroke-linecap="round" stroke-linejoin="round"/>
</svg>
