<svg width="21" height="21" viewBox="0 0 21 21" fill="none" xmlns="http://www.w3.org/2000/svg">
<path d="M16.1714 2.89868H4.50073C3.57994 2.89868 2.8335 3.64906 2.8335 4.5747V16.3069C2.8335 17.2325 3.57994 17.9829 4.50073 17.9829H16.1714C17.0922 17.9829 17.8386 17.2325 17.8386 16.3069V4.5747C17.8386 3.64906 17.0922 2.89868 16.1714 2.89868Z" stroke="#BCBDC1" stroke-width="1.35139" stroke-linecap="round" stroke-linejoin="round"/>
<path d="M7.4187 8.76489C8.10906 8.76489 8.6687 8.2021 8.6687 7.50787C8.6687 6.81364 8.10906 6.25085 7.4187 6.25085C6.72835 6.25085 6.1687 6.81364 6.1687 7.50787C6.1687 8.2021 6.72835 8.76489 7.4187 8.76489Z" stroke="#BCBDC1" stroke-width="1.35139" stroke-linecap="round" stroke-linejoin="round"/>
<path d="M17.8394 12.9548L13.6713 8.76477L4.50146 17.9829" stroke="#BCBDC1" stroke-width="1.35139" stroke-linecap="round" stroke-linejoin="round"/>
</svg>
