<svg width="14" height="15" viewBox="0 0 14 15" fill="none" xmlns="http://www.w3.org/2000/svg">
<path d="M13.2605 7.21913C13.2628 8.11021 13.0545 8.98923 12.6526 9.78461C12.1759 10.7377 11.4432 11.5394 10.5365 12.0998C9.62981 12.6602 8.58488 12.9573 7.51878 12.9577C6.62721 12.96 5.74771 12.7518 4.95189 12.3501L1.10156 13.6328L2.38501 9.78461C1.98304 8.98923 1.77473 8.11021 1.77706 7.21913C1.77747 6.15361 2.07469 5.10926 2.63543 4.20303C3.19616 3.29681 3.99826 2.56451 4.95189 2.08816C5.74771 1.68642 6.62721 1.47823 7.51878 1.48055H7.85653C9.2645 1.55818 10.5943 2.15214 11.5914 3.14869C12.5885 4.14525 13.1828 5.47436 13.2605 6.88156V7.21913Z" stroke="black" stroke-width="1.35139" stroke-linecap="round" stroke-linejoin="round"/>
</svg>
