<svg width="16" height="15" viewBox="0 0 16 15" fill="none" xmlns="http://www.w3.org/2000/svg">
<path d="M4.90873 14.308H2.88224C2.52394 14.308 2.18031 14.1658 1.92695 13.9125C1.67359 13.6593 1.53125 13.3159 1.53125 12.9578V8.23188C1.53125 7.87377 1.67359 7.53033 1.92695 7.2771C2.18031 7.02388 2.52394 6.88162 2.88224 6.88162H4.90873M9.63721 5.53137V2.83086C9.63721 2.2937 9.42371 1.77853 9.04366 1.3987C8.66362 1.01887 8.14818 0.805481 7.61072 0.805481L4.90873 6.88162V14.308H12.5283C12.8541 14.3117 13.1703 14.1976 13.4186 13.9867C13.6668 13.7758 13.8305 13.4823 13.8793 13.1603L14.8115 7.08416C14.8409 6.89064 14.8278 6.69305 14.7732 6.50507C14.7186 6.3171 14.6238 6.14323 14.4953 5.99553C14.3668 5.84782 14.2077 5.72981 14.029 5.64966C13.8503 5.56952 13.6564 5.52915 13.4605 5.53137H9.63721Z" stroke="black" stroke-width="1.35139" stroke-linecap="round" stroke-linejoin="round"/>
</svg>
